# xmcd CD database file
#
# Track frame offsets:
#	180
#	5606
#	13347
#	21864
#	40529
#	51149
#	64722
#	81414
#	93860
#	110332
#	124171
#	136295
#	151074
#	170703
#	185245
#	200496
#	213614
#
# Disc length: 3245 seconds
#
# Revision: 0
# Processed by: cddbd v1.4PL0 Copyright (c) Steve Scherf et al.
# Submitted via: Feurio! 1.65 - http://www.feurio.com
#
DISCID=eb0cab11
DTITLE=D.C. and The Cruisers - Live At The Feelgood
DYEAR=1994
DGENRE=blues
TTITLE0=007
TTITLE1=Great Balls Of Fire
TTITLE2=No Mo Do Yakomo
TTITLE3=Pride And Joy
TTITLE4=My Way
TTITLE5=Feelgood Factor
TTITLE6=Pretty Woman
TTITLE7=Big 'Round World
TTITLE8=Rattlesnake Shake
TTITLE9=Wanna Be The One
TTITLE10=Looking At The Window
TTITLE11=Don't You Rock Me The Wrong Way
TTITLE12=Don't You Know
TTITLE13=Full Moon Over Dallas
TTITLE14=Tanqueray
TTITLE15=Madison Blues
TTITLE16=Leave My Little Girl Alone
EXTD=
EXTT0=
EXTT1=
EXTT2=
EXTT3=
EXTT4=
EXTT5=
EXTT6=
EXTT7=
EXTT8=
EXTT9=
EXTT10=
EXTT11=
EXTT12=
EXTT13=
EXTT14=
EXTT15=
EXTT16=
PLAYORDER=
